# File created by Blade
# Date/Time:  Tue Jan 27 19:58:31 2015
# Frame Rate: 120.000 fps
#------------------------------------------------------
:FULLY-SPECIFIED
:DEGREES
2904
root 5.339496 34.449144 2.721959 27.305380 -20.603678 -36.640573
Spine 0.933480 26.649748 4.429696
Head -34.518481 -2.783321 16.671681
LeftShoulder -16.947330 -0.957522 33.363508
LeftArm -7.840690 -31.898746 -76.299517
LeftForeArm -44.849210 0.000000 141.562433
LeftHand 6.988882 -0.000000 -38.061554
LeftHandThumb1 -26.253704 0.000000 33.147579
RightShoulder -6.818131 1.732582 -18.211887
RightArm 28.209761 -44.205177 85.214436
RightForeArm -16.850808 -0.000000 21.003322
RightHand 17.300708 -0.000000 9.329176
RightHandThumb1 -24.326973 -0.000000 -32.862282
LeftUpLeg -2.373039 19.268120 23.786611
LeftLeg -7.185595 -0.000000 0.000000
LeftFoot -18.009636 20.402612 -16.779118
LeftToeBase 21.262154 -0.000000 -0.000000
RightUpLeg 29.999864 -55.971968 -49.268755
RightLeg 113.657619 -0.000000 -0.000000
RightFoot 37.764976 -19.727244 23.713386
RightToeBase 11.808248 -0.000000 -0.000000
2905
root 5.357926 34.451972 2.704180 27.358544 -20.712708 -36.674020
Spine 1.004726 26.749269 4.412794
Head -34.396128 -2.804747 16.600052
LeftShoulder -17.023865 -0.809611 33.278677
LeftArm -7.796237 -31.854251 -76.349524
LeftForeArm -44.985080 -0.000000 141.672287
LeftHand 7.071604 -0.000000 -38.075426
LeftHandThumb1 -26.253704 0.000000 33.147579
RightShoulder -6.800198 1.790318 -18.307784
RightArm 28.155193 -44.222118 85.234628
RightForeArm -16.915192 0.000000 20.911148
RightHand 17.296498 -0.000000 9.287301
RightHandThumb1 -24.326973 -0.000000 -32.862282
LeftUpLeg -2.430856 19.264228 23.769979
LeftLeg -7.086961 -0.000000 0.000000
LeftFoot -18.023866 20.424350 -16.777155
LeftToeBase 20.980950 -0.000000 -0.000000
RightUpLeg 30.143190 -56.385905 -49.461243
RightLeg 114.054542 -0.000000 -0.000000
RightFoot 38.040645 -19.474197 23.516101
RightToeBase 11.338013 -0.000000 -0.000000
2906
root 5.374481 34.458628 2.682818 27.433393 -20.831671 -36.745317
Spine 1.070490 26.866542 4.418034
Head -34.246604 -2.833523 16.498867
LeftShoulder -17.063435 -0.683858 33.222135
LeftArm -7.851474 -31.926393 -76.342308
LeftForeArm -45.172933 -0.000000 141.775013
LeftHand 7.122931 -0.000000 -38.303075
LeftHandThumb1 -26.253704 0.000000 33.147579
RightShoulder -6.763128 1.805973 -18.404575
RightArm 28.116419 -44.138102 85.312525
RightForeArm -17.024176 -0.000000 20.783208
RightHand 17.274422 0.000000 9.504214
RightHandThumb1 -24.326973 -0.000000 -32.862282
LeftUpLeg -2.485236 19.284460 23.798569
LeftLeg -6.987667 -0.000000 0.000000
LeftFoot -18.208232 20.377318 -17.122075
LeftToeBase 21.250204 -0.000000 -0.000000
RightUpLeg 30.185772 -56.786885 -49.538840
RightLeg 114.495831 -0.000000 -0.000000
RightFoot 37.939082 -19.491821 23.849508
RightToeBase 11.924462 -0.000000 -0.000000
2907
root 5.394723 34.460963 2.668502 27.458666 -20.972156 -36.786296
Spine 1.173432 26.965121 4.432131
Head -34.083202 -2.867768 16.395925
LeftShoulder -17.110929 -0.626801 33.166456
LeftArm -8.025905 -32.018268 -76.257828
LeftForeArm -45.361689 0.000000 141.857977
LeftHand 7.166899 0.000000 -38.438052
LeftHandThumb1 -26.253704 0.000000 33.147579
RightShoulder -6.707872 1.836478 -18.515937
RightArm 28.091258 -44.168143 85.318311
RightForeArm -17.085467 -0.000000 20.683434
RightHand 17.410341 -0.000000 9.589095
RightHandThumb1 -24.326973 -0.000000 -32.862282
LeftUpLeg -2.463071 19.279406 23.789882
LeftLeg -6.936415 -0.000000 0.000000
LeftFoot -18.297127 20.355106 -17.273777
LeftToeBase 21.398749 -0.000000 -0.000000
RightUpLeg 30.248425 -57.134689 -49.718732
RightLeg 114.970492 -0.000000 -0.000000
RightFoot 38.000909 -19.455535 23.910984
RightToeBase 11.584164 -0.000000 -0.000000
